@startuml
skinparam monochrome true
hide empty members

abstract class EntityBase {
}

EntityBase <|-- IdentifiableEntity

abstract class IdentifiableEntity {
    Id: Guid
}

IdentifiableEntity <|-- Animal

class Animal {
    DateOfBirth: DateOfBirth
    Name: Name
    Gender: Nullable`1
    AnimalSpecies: Nullable`1
}

@enduml
