@startuml
hide empty members
skinparam monochrome true
skinparam backgroundcolor transparent

abstract class Entity {
}

Entity <|-- MetricValueBase

abstract class MetricValueBase {
    Prefix: UnitPrefix
    Unit: String
    Value: Double
}

MetricValueBase <|-- Kilometer

class Kilometer {
}

@enduml
