@startuml
skinparam monochrome true
hide empty members

abstract class EntityBase {
}

EntityBase <|-- IdentifiableEntity

abstract class IdentifiableEntity {
    Id: Guid
}

IdentifiableEntity <|-- Species

abstract class Species {
    DateOfBirth: DateOfBirth
    Gender: Gender?
}

Species <|-- Animal

class Animal {
    AnimalSpecies: WellKnownAnimal?
    Name: Name
}

@enduml
